<svg id="Layer_1" data-name="Layer 1" xmlns="http://www.w3.org/2000/svg" viewBox="0 0 154.53 50.88"><defs><style>.cls-1,.cls-2{fill:#fff;}.cls-1{fill-rule:evenodd;}</style></defs><title>INCORO</title><path class="cls-1" d="M25.56,0h-.71C7.87.52,0,12.69,0,26.23,0,31,1.22,33.09,1.22,33.09a14.82,14.82,0,0,1-.88-5.28,24.43,24.43,0,0,1,1.82-9.27V28a1.1,1.1,0,0,0,0,2.17V34a1.1,1.1,0,0,0,.67,2,1.08,1.08,0,0,0,.79-.33h8.54l1.92,5.9h3.58L10,45.64c3.57,3,9.15,4.73,14,5.15,0,0,0,.06,0,.08C30.5,51,37,49,41.28,45.13c-1.43-1.81-4.54-3.87-7.45-3.87a9.54,9.54,0,0,0-7.46,4.27l-.74-.34V36.31a1.14,1.14,0,0,0,.7-.64h2.93a2.09,2.09,0,0,0,0,.25A5.09,5.09,0,0,0,39,38h7.31a1.11,1.11,0,1,0,1.32-1.37V24.24a1.09,1.09,0,0,0,.85-1.07,1.11,1.11,0,0,0-1.1-1.11,1.12,1.12,0,0,0-1.06.77H43.84a1.1,1.1,0,0,0-1-.76V13.8a1.1,1.1,0,1,0-1.69-1.18h-2V8.16l-3,.94V5.73A24.51,24.51,0,0,1,50.07,27.81a22,22,0,0,1-.57,5.28,34.3,34.3,0,0,0,1.14-6.38C51.12,13.58,42.54.52,25.56,0ZM28,6.38a1.07,1.07,0,0,0,.84.62v4.43L23.6,13.09H21.24a1.36,1.36,0,0,0,0-.2,1.1,1.1,0,0,0-.77-1.05V7a1.06,1.06,0,0,0,.7-.68Zm9.92,7.19V31.64h-.84a5,5,0,0,0-2.74-.8,5.08,5.08,0,0,0-2.42.61V25.68a1.11,1.11,0,1,0,0-2.21,1.1,1.1,0,0,0-1,.62H23.25v-5H28a1.1,1.1,0,0,0,2.06,0h4.93a1.11,1.11,0,1,0,1.3-1.46V14.11Zm-11.51,18A1.1,1.1,0,1,0,25,32.7v1.49a1.11,1.11,0,0,0-.77.92h-.79l.14-.42-.31-.22v-9.9h7.56a1.11,1.11,0,0,0,.79,1.06v5.91ZM13.58,24.13a1.11,1.11,0,0,0-.88-.94V14a1.08,1.08,0,0,0,.68-.43h5.89a1.09,1.09,0,0,0,.88.44,1.12,1.12,0,0,0,.89-.44h1.08l-.14,0v5.06H19.41A1.1,1.1,0,1,0,18.1,19.8v3.37a1.1,1.1,0,0,0-1.05,1Zm-5.68,0v-.06A1.11,1.11,0,0,0,7,23V14a1.1,1.1,0,0,0,1-.74l3.43,0a1.11,1.11,0,0,0,.84.71v9.21a1.08,1.08,0,0,0-.9,1ZM6.55,11.87a1.11,1.11,0,0,0-.68,1H5.4c.37-.48.75-.94,1.15-1.39ZM19.24,24.09a1.11,1.11,0,0,0-.76-.87V19.8a1.09,1.09,0,0,0,.86-.7H22v5Zm-.72,1.22a1.11,1.11,0,0,0,.69-.74H22v9L18.52,31Zm19.39,7-.33-.3h.33ZM35.82,17.62a1.1,1.1,0,0,0-1,1H30.08a1.11,1.11,0,0,0-.83-1v-1.3l6.57-2.1Zm-7,0a1.11,1.11,0,0,0-.95,1H23.25v-.39l5.58-1.79ZM20.05,7.08v4.71a1.1,1.1,0,0,0-1,1.1,1.23,1.23,0,0,0,0,.2h-5.5a1.49,1.49,0,0,0,0-.21,1.11,1.11,0,0,0-.87-1.08l0-5.29.35-.2,6.06,0A1.1,1.1,0,0,0,20.05,7.08Zm-1-1.17H13.83a24.13,24.13,0,0,1,5.93-2.08V5A1.12,1.12,0,0,0,19.05,5.91Zm-6.81.88v5a1.11,1.11,0,0,0-.86,1.08H8.08A1.1,1.1,0,0,0,7,11.79V11A25,25,0,0,1,12.24,6.79ZM5.12,13.27h.82a1.13,1.13,0,0,0,.61.64V23a1.1,1.1,0,1,0,1.24,1.55h3.63a1.12,1.12,0,0,0,.82.78V28.3a1.13,1.13,0,0,0-.82.76h-8a1.09,1.09,0,0,0-.8-1L2.7,17.31A24.55,24.55,0,0,1,5.12,13.27ZM3.92,35.11a1.49,1.49,0,0,0,0-.21,1.1,1.1,0,0,0-1.1-1.1.78.78,0,0,0-.22,0l0-3.64a1.12,1.12,0,0,0,.74-.67l8,0A1.11,1.11,0,1,0,12.7,28.3V25.35a1.08,1.08,0,0,0,.84-.78h3.55a1.09,1.09,0,0,0,1,.8v5.36l-.39-.29-5.86,4.25.14.42ZM25.3,45l-7.55-3.47h3.57l1.92-5.9h1a1.12,1.12,0,0,0,1,.69Zm1.1-9.93a1.1,1.1,0,0,0-1.07-1V32.74a1.09,1.09,0,0,0,1-.73h4.75a5.06,5.06,0,0,0-1.77,3.1Zm13,.81a5.29,5.29,0,0,0-.24-1.55V32h2a1.1,1.1,0,1,0,1.66-1.28V24.27a1.11,1.11,0,0,0,1-1.05h2.35a1.09,1.09,0,0,0,.94,1V36.64a1.11,1.11,0,0,0-.94,1H39.13A5,5,0,0,0,39.42,35.92Zm1.77-22.83a1.1,1.1,0,0,0,1.08.9.86.86,0,0,0,.23,0V22.1a1.12,1.12,0,0,0-.82,1.07,1.1,1.1,0,0,0,.82,1.06v6.33a.86.86,0,0,0-.23,0,1.1,1.1,0,0,0-1.1,1.1h-2V13.09ZM35.82,9.22,29.25,11.3V7a1.11,1.11,0,1,0-1.37-1.07H21.25a1.09,1.09,0,0,0-1.1-1V3.75a24.24,24.24,0,0,1,4.7-.45h.71A24.29,24.29,0,0,1,35.82,5.55Z"/><path class="cls-2" d="M69.86,24.47V39.4H68.18V24.47Z"/><path class="cls-2" d="M85.22,24.47h1.65V39.4H85.52L75.88,27.15V39.4H74.24V24.47h1.58l9.4,12Z"/><path class="cls-2" d="M102.68,38.11a7.72,7.72,0,0,1-1.35.82,7.17,7.17,0,0,1-1.56.53,8.1,8.1,0,0,1-1.86.2,7.31,7.31,0,0,1-3-.6,7.43,7.43,0,0,1-2.37-1.63A7.52,7.52,0,0,1,91,35a8.4,8.4,0,0,1,0-6,7.82,7.82,0,0,1,1.57-2.47A7.4,7.4,0,0,1,98,24.21a9.3,9.3,0,0,1,1.84.17,8.56,8.56,0,0,1,1.53.48,7.22,7.22,0,0,1,1.3.75,10.37,10.37,0,0,1,1.15,1l-1.15,1.24a9.65,9.65,0,0,0-2.06-1.48,6.11,6.11,0,0,0-4.93-.1,5.51,5.51,0,0,0-1.83,1.3,6.08,6.08,0,0,0-1.22,1.95,7.05,7.05,0,0,0,0,4.85,6.18,6.18,0,0,0,1.22,2,5.84,5.84,0,0,0,1.83,1.31,5.51,5.51,0,0,0,2.3.48,5.71,5.71,0,0,0,2.64-.57,8.82,8.82,0,0,0,2.18-1.59L103.89,37A11,11,0,0,1,102.68,38.11Z"/><path class="cls-2" d="M120.42,34.87a7.69,7.69,0,0,1-1.56,2.46,7.46,7.46,0,0,1-2.41,1.7,7.55,7.55,0,0,1-3.11.63,7.64,7.64,0,0,1-3.11-.62,7.35,7.35,0,0,1-3.94-4.13,8.14,8.14,0,0,1,0-5.91,7.69,7.69,0,0,1,1.56-2.46,7.35,7.35,0,0,1,2.41-1.7,7.48,7.48,0,0,1,3.11-.63,7.59,7.59,0,0,1,3.1.62,7.33,7.33,0,0,1,4,4.13,8.09,8.09,0,0,1,.54,2.95A7.94,7.94,0,0,1,120.42,34.87Zm-1.63-5.33a5.92,5.92,0,0,0-1.23-2,6.09,6.09,0,0,0-1.87-1.32,5.53,5.53,0,0,0-2.35-.49,5.72,5.72,0,0,0-2.36.48,5.56,5.56,0,0,0-1.84,1.31,6.1,6.1,0,0,0-1.21,2,6.79,6.79,0,0,0,0,4.81,5.73,5.73,0,0,0,1.23,2,5.88,5.88,0,0,0,6.58,1.34,5.66,5.66,0,0,0,1.84-1.31,6.21,6.21,0,0,0,1.21-2,6.52,6.52,0,0,0,.43-2.4A6.69,6.69,0,0,0,118.79,29.54Z"/><path class="cls-2" d="M134.82,39.4l-4.33-5.8h-4.27v5.8h-1.68V24.47H131a7.11,7.11,0,0,1,2.23.32,5,5,0,0,1,1.69.9,4.06,4.06,0,0,1,1.47,3.24,4.4,4.4,0,0,1-.3,1.67,3.7,3.7,0,0,1-.84,1.28,4.48,4.48,0,0,1-1.29.91,6.13,6.13,0,0,1-1.62.51l4.59,6.1Zm-1.16-12.59a4.5,4.5,0,0,0-2.82-.79h-4.62V32.1h4.6a5.41,5.41,0,0,0,1.54-.21,3.77,3.77,0,0,0,1.22-.61,2.78,2.78,0,0,0,.8-1,2.93,2.93,0,0,0,.29-1.31A2.62,2.62,0,0,0,133.66,26.81Z"/><path class="cls-2" d="M154,34.87a7.84,7.84,0,0,1-1.55,2.46A7.83,7.83,0,0,1,143.79,39a7.47,7.47,0,0,1-2.4-1.68,7.35,7.35,0,0,1-1.55-2.45,8.14,8.14,0,0,1-.54-3,7.93,7.93,0,0,1,.55-2.95,7.69,7.69,0,0,1,1.56-2.46,7.46,7.46,0,0,1,2.41-1.7,7.55,7.55,0,0,1,3.11-.63,7.64,7.64,0,0,1,3.11.62A7.27,7.27,0,0,1,154,29a8.14,8.14,0,0,1,0,5.91Zm-1.63-5.33a5.88,5.88,0,0,0-3.09-3.28,5.6,5.6,0,0,0-2.36-.49,5.76,5.76,0,0,0-2.36.48,5.66,5.66,0,0,0-1.84,1.31,6.28,6.28,0,0,0-1.21,2,6.94,6.94,0,0,0,0,4.81,5.73,5.73,0,0,0,1.23,2,6,6,0,0,0,1.87,1.33,5.77,5.77,0,0,0,6.56-1.3,6.19,6.19,0,0,0,1.2-2,6.52,6.52,0,0,0,.44-2.4A6.69,6.69,0,0,0,152.34,29.54Z"/></svg>